{"accessors":[{"bufferView":0,"componentType":5126,"count":1,"max":[0.0],"min":[0.0],"normalized":false,"type":"SCALAR"},{"bufferView":1,"componentType":5126,"count":1,"max":[370.0,52.0,0.0],"min":[370.0,52.0,0.0],"normalized":false,"type":"VEC3"},{"bufferView":2,"componentType":5126,"count":2,"max":[1.5],"min":[0.0],"normalized":false,"type":"SCALAR"},{"bufferView":3,"componentType":5126,"count":2,"max":[462.0,52.0,0.0],"min":[370.0,52.0,0.0],"normalized":false,"type":"VEC3"},{"bufferView":4,"componentType":5126,"count":1,"max":[0.0],"min":[0.0],"normalized":false,"type":"SCALAR"},{"bufferView":5,"componentType":5126,"count":1,"max":[828.0,77.0,0.0],"min":[828.0,77.0,0.0],"normalized":false,"type":"VEC3"},{"bufferView":6,"componentType":5126,"count":2,"max":[1.0],"min":[0.0],"normalized":false,"type":"SCALAR"},{"bufferView":7,"componentType":5126,"count":2,"max":[828.0,77.0,0.0],"min":[779.0,77.0,0.0],"normalized":false,"type":"VEC3"},{"bufferView":8,"componentType":5126,"count":1,"max":[0.0],"min":[0.0],"normalized":false,"type":"SCALAR"},{"bufferView":9,"componentType":5126,"count":1,"max":[699.0,92.0,0.0],"min":[699.0,92.0,0.0],"normalized":false,"type":"VEC3"},{"bufferView":10,"componentType":5126,"count":2,"max":[1.0],"min":[0.0],"normalized":false,"type":"SCALAR"},{"bufferView":11,"componentType":5126,"count":2,"max":[742.0,92.0,0.0],"min":[699.0,92.0,0.0],"normalized":false,"type":"VEC3"},{"bufferView":12,"componentType":5126,"count":1,"max":[0.0],"min":[0.0],"normalized":false,"type":"SCALAR"},{"bufferView":13,"componentType":5126,"count":1,"max":[2051.0,78.0,0.0],"min":[2051.0,78.0,0.0],"normalized":false,"type":"VEC3"},{"bufferView":14,"componentType":5126,"count":2,"max":[1.0],"min":[0.0],"normalized":false,"type":"SCALAR"},{"bufferView":15,"componentType":5126,"count":2,"max":[2051.0,78.0,0.0],"min":[2051.0,7.0,0.0],"normalized":false,"type":"VEC3"},{"bufferView":16,"componentType":5126,"count":1,"max":[0.0],"min":[0.0],"normalized":false,"type":"SCALAR"},{"bufferView":17,"componentType":5126,"count":1,"max":[2210.0,7.0,0.0],"min":[2210.0,7.0,0.0],"normalized":false,"type":"VEC3"},{"bufferView":18,"componentType":5126,"count":2,"max":[1.0],"min":[0.0],"normalized":false,"type":"SCALAR"},{"bufferView":19,"componentType":5126,"count":2,"max":[2242.0,7.0,0.0],"min":[2100.0400390625,7.0,0.0],"normalized":false,"type":"VEC3"},{"bufferView":20,"componentType":5126,"count":1,"max":[0.0],"min":[0.0],"normalized":false,"type":"SCALAR"},{"bufferView":21,"componentType":5126,"count":1,"max":[2753.0,-206.0,0.0],"min":[2753.0,-206.0,0.0],"normalized":false,"type":"VEC3"},{"bufferView":22,"componentType":5126,"count":3,"max":[1.0],"min":[0.0],"normalized":false,"type":"SCALAR"},{"bufferView":23,"componentType":5126,"count":3,"max":[2826.0,-174.0,0.0],"min":[2753.0,-206.0,0.0],"normalized":false,"type":"VEC3"},{"bufferView":24,"componentType":5126,"count":1,"max":[0.0],"min":[0.0],"normalized":false,"type":"SCALAR"},{"bufferView":25,"componentType":5126,"count":1,"max":[3516.0,-178.0,0.0],"min":[3516.0,-178.0,0.0],"normalized":false,"type":"VEC3"},{"bufferView":26,"componentType":5126,"count":2,"max":[1.0],"min":[0.0],"normalized":false,"type":"SCALAR"},{"bufferView":27,"componentType":5126,"count":2,"max":[3516.0,-178.0,0.0],"min":[3417.0,-178.0,0.0],"normalized":false,"type":"VEC3"},{"bufferView":28,"componentType":5126,"count":1,"max":[0.0],"min":[0.0],"normalized":false,"type":"SCALAR"},{"bufferView":29,"componentType":5126,"count":1,"max":[4073.0,-206.0,0.0],"min":[4073.0,-206.0,0.0],"normalized":false,"type":"VEC3"},{"bufferView":30,"componentType":5126,"count":3,"max":[1.0],"min":[0.0],"normalized":false,"type":"SCALAR"},{"bufferView":31,"componentType":5126,"count":3,"max":[4077.0,-164.0,0.0],"min":[4057.0,-206.0,0.0],"normalized":false,"type":"VEC3"},{"bufferView":32,"componentType":5126,"count":1,"max":[0.0],"min":[0.0],"normalized":false,"type":"SCALAR"},{"bufferView":33,"componentType":5126,"count":1,"max":[4183.0,-198.0,0.0],"min":[4183.0,-198.0,0.0],"normalized":false,"type":"VEC3"},{"bufferView":34,"componentType":5126,"count":2,"max":[1.0],"min":[0.0],"normalized":false,"type":"SCALAR"},{"bufferView":35,"componentType":5126,"count":2,"max":[4183.0,-198.0,0.0],"min":[4126.0,-198.0,0.0],"normalized":false,"type":"VEC3"}],"animations":[{"channels":[{"sampler":0,"target":{"node":393,"path":"translation"}}],"name":"RESET77","samplers":[{"input":0,"interpolation":"LINEAR","output":1}]},{"channels":[{"sampler":0,"target":{"node":393,"path":"translation"}}],"name":"move","samplers":[{"input":2,"interpolation":"LINEAR","output":3}]},{"channels":[{"sampler":0,"target":{"node":400,"path":"translation"}}],"name":"RESET79","samplers":[{"input":4,"interpolation":"LINEAR","output":5}]},{"channels":[{"sampler":0,"target":{"node":400,"path":"translation"}}],"name":"new_animation","samplers":[{"input":6,"interpolation":"LINEAR","output":7}]},{"channels":[{"sampler":0,"target":{"node":403,"path":"translation"}}],"name":"RESET80","samplers":[{"input":8,"interpolation":"LINEAR","output":9}]},{"channels":[{"sampler":0,"target":{"node":403,"path":"translation"}}],"name":"new_animation2","samplers":[{"input":10,"interpolation":"LINEAR","output":11}]},{"channels":[{"sampler":0,"target":{"node":406,"path":"translation"}}],"name":"RESET81","samplers":[{"input":12,"interpolation":"LINEAR","output":13}]},{"channels":[{"sampler":0,"target":{"node":406,"path":"translation"}}],"name":"new_animation3","samplers":[{"input":14,"interpolation":"LINEAR","output":15}]},{"channels":[{"sampler":0,"target":{"node":413,"path":"translation"}}],"name":"RESET83","samplers":[{"input":16,"interpolation":"LINEAR","output":17}]},{"channels":[{"sampler":0,"target":{"node":413,"path":"translation"}}],"name":"new_animation4","samplers":[{"input":18,"interpolation":"LINEAR","output":19}]},{"channels":[{"sampler":0,"target":{"node":420,"path":"translation"}}],"name":"RESET85","samplers":[{"input":20,"interpolation":"LINEAR","output":21}]},{"channels":[{"sampler":0,"target":{"node":420,"path":"translation"}}],"name":"new_animation5","samplers":[{"input":22,"interpolation":"LINEAR","output":23}]},{"channels":[{"sampler":0,"target":{"node":429,"path":"translation"}}],"name":"RESET86","samplers":[{"input":24,"interpolation":"LINEAR","output":25}]},{"channels":[{"sampler":0,"target":{"node":429,"path":"translation"}}],"name":"new_animation6","samplers":[{"input":26,"interpolation":"LINEAR","output":27}]},{"channels":[{"sampler":0,"target":{"node":436,"path":"translation"}}],"name":"RESET88","samplers":[{"input":28,"interpolation":"LINEAR","output":29}]},{"channels":[{"sampler":0,"target":{"node":436,"path":"translation"}}],"name":"new_animation7","samplers":[{"input":30,"interpolation":"LINEAR","output":31}]},{"channels":[{"sampler":0,"target":{"node":439,"path":"translation"}}],"name":"RESET89","samplers":[{"input":32,"interpolation":"LINEAR","output":33}]},{"channels":[{"sampler":0,"target":{"node":439,"path":"translation"}}],"name":"new_animation8","samplers":[{"input":34,"interpolation":"LINEAR","output":35}]}],"asset":{"generator":"Godot Engine v4.5.stable.official@876b290332ec6f2e6d173d08162a02aa7e6ca46d","version":"2.0"},"bufferViews":[{"buffer":0,"byteLength":4},{"buffer":0,"byteLength":12,"byteOffset":4},{"buffer":0,"byteLength":8,"byteOffset":16},{"buffer":0,"byteLength":24,"byteOffset":24},{"buffer":0,"byteLength":4,"byteOffset":48},{"buffer":0,"byteLength":12,"byteOffset":52},{"buffer":0,"byteLength":8,"byteOffset":64},{"buffer":0,"byteLength":24,"byteOffset":72},{"buffer":0,"byteLength":4,"byteOffset":96},{"buffer":0,"byteLength":12,"byteOffset":100},{"buffer":0,"byteLength":8,"byteOffset":112},{"buffer":0,"byteLength":24,"byteOffset":120},{"buffer":0,"byteLength":4,"byteOffset":144},{"buffer":0,"byteLength":12,"byteOffset":148},{"buffer":0,"byteLength":8,"byteOffset":160},{"buffer":0,"byteLength":24,"byteOffset":168},{"buffer":0,"byteLength":4,"byteOffset":192},{"buffer":0,"byteLength":12,"byteOffset":196},{"buffer":0,"byteLength":8,"byteOffset":208},{"buffer":0,"byteLength":24,"byteOffset":216},{"buffer":0,"byteLength":4,"byteOffset":240},{"buffer":0,"byteLength":12,"byteOffset":244},{"buffer":0,"byteLength":12,"byteOffset":256},{"buffer":0,"byteLength":36,"byteOffset":268},{"buffer":0,"byteLength":4,"byteOffset":304},{"buffer":0,"byteLength":12,"byteOffset":308},{"buffer":0,"byteLength":8,"byteOffset":320},{"buffer":0,"byteLength":24,"byteOffset":328},{"buffer":0,"byteLength":4,"byteOffset":352},{"buffer":0,"byteLength":12,"byteOffset":356},{"buffer":0,"byteLength":12,"byteOffset":368},{"buffer":0,"byteLength":36,"byteOffset":380},{"buffer":0,"byteLength":4,"byteOffset":416},{"buffer":0,"byteLength":12,"byteOffset":420},{"buffer":0,"byteLength":8,"byteOffset":432},{"buffer":0,"byteLength":24,"byteOffset":440}],"buffers":[{"byteLength":464,"uri":"Running_Over_It0.bin"}],"extensionsUsed":["GODOT_single_root"],"nodes":[{"children":[1,3,75,80,84,389,445,453,458,466,474,482],"name":"Game"},{"children":[2],"name":"GameManager"},{"name":"ScoreLabel"},{"children":[4,5,6,7,15,23,31,39,47,55,63,67,71],"name":"TileMap"},{"name":"Background"},{"name":"Mid"},{"name":"Main"},{"children":[8,9,13,14],"name":"Slime"},{"name":"AnimatedSprite2D"},{"children":[10,11,12],"name":"Killzone"},{"name":"Timer"},{"name":"AudioStreamPlayer2D"},{"name":"CollisionShape2D"},{"name":"RayCastRight"},{"name":"RayCastLeft"},{"children":[16,17,21,22],"name":"Slime2"},{"name":"AnimatedSprite2D2"},{"children":[18,19,20],"name":"Killzone2"},{"name":"Timer2"},{"name":"AudioStreamPlayer2D2"},{"name":"CollisionShape2D2"},{"name":"RayCastRight2"},{"name":"RayCastLeft2"},{"children":[24,25,29,30],"name":"Slime4"},{"name":"AnimatedSprite2D3"},{"children":[26,27,28],"name":"Killzone3"},{"name":"Timer3"},{"name":"AudioStreamPlayer2D3"},{"name":"CollisionShape2D3"},{"name":"RayCastRight3"},{"name":"RayCastLeft3"},{"children":[32,33,37,38],"name":"Slime5"},{"name":"AnimatedSprite2D4"},{"children":[34,35,36],"name":"Killzone4"},{"name":"Timer4"},{"name":"AudioStreamPlayer2D4"},{"name":"CollisionShape2D4"},{"name":"RayCastRight4"},{"name":"RayCastLeft4"},{"children":[40,41,45,46],"name":"Slime6"},{"name":"AnimatedSprite2D5"},{"children":[42,43,44],"name":"Killzone5"},{"name":"Timer5"},{"name":"AudioStreamPlayer2D5"},{"name":"CollisionShape2D5"},{"name":"RayCastRight5"},{"name":"RayCastLeft5"},{"children":[48,49,53,54],"name":"Slime7"},{"name":"AnimatedSprite2D6"},{"children":[50,51,52],"name":"Killzone6"},{"name":"Timer6"},{"name":"AudioStreamPlayer2D6"},{"name":"CollisionShape2D6"},{"name":"RayCastRight6"},{"name":"RayCastLeft6"},{"children":[56,57,61,62],"name":"Slime8"},{"name":"AnimatedSprite2D7"},{"children":[58,59,60],"name":"Killzone7"},{"name":"Timer7"},{"name":"AudioStreamPlayer2D7"},{"name":"CollisionShape2D7"},{"name":"RayCastRight7"},{"name":"RayCastLeft7"},{"children":[64,65,66],"name":"teleport"},{"name":"WorldTileset"},{"name":"CollisionShape2D8"},{"name":"Destination"},{"children":[68,69,70],"name":"teleport2"},{"name":"WorldTileset2"},{"name":"CollisionShape2D9"},{"name":"Destination2"},{"children":[72,73,74],"name":"teleport3"},{"name":"WorldTileset3"},{"name":"CollisionShape2D10"},{"name":"Destination3"},{"children":[76,77,78,79],"name":"Player"},{"name":"AnimatedSprite2D8"},{"name":"CollisionShape2D11"},{"name":"Camera2D"},{"name":"TimerLabel"},{"children":[81,82,83],"name":"Killzone8"},{"name":"Timer8"},{"name":"AudioStreamPlayer2D8"},{"name":"CollisionShape2D12"},{"children":[85,89,93,97,101,105,109,113,117,121,125,129,133,137,141,145,149,153,157,161,165,169,173,177,181,185,189,193,197,201,205,209,213,217,221,225,229,233,237,241,245,249,253,257,261,265,269,273,277,281,285,289,293,297,301,305,309,313,317,321,325,329,333,337,341,345,349,353,357,361,365,369,373,377,381,385],"name":"Coins"},{"children":[86,87,88],"name":"Coin"},{"name":"AnimatedSprite2D9"},{"name":"CollisionShape2D13"},{"name":"PickupSound"},{"children":[90,91,92],"name":"Coin2"},{"name":"AnimatedSprite2D10"},{"name":"CollisionShape2D14"},{"name":"PickupSound2"},{"children":[94,95,96],"name":"Coin3"},{"name":"AnimatedSprite2D11"},{"name":"CollisionShape2D15"},{"name":"PickupSound3"},{"children":[98,99,100],"name":"Coin4"},{"name":"AnimatedSprite2D12"},{"name":"CollisionShape2D16"},{"name":"PickupSound4"},{"children":[102,103,104],"name":"Coin5"},{"name":"AnimatedSprite2D13"},{"name":"CollisionShape2D17"},{"name":"PickupSound5"},{"children":[106,107,108],"name":"Coin6"},{"name":"AnimatedSprite2D14"},{"name":"CollisionShape2D18"},{"name":"PickupSound6"},{"children":[110,111,112],"name":"Coin7"},{"name":"AnimatedSprite2D15"},{"name":"CollisionShape2D19"},{"name":"PickupSound7"},{"children":[114,115,116],"name":"Coin8"},{"name":"AnimatedSprite2D16"},{"name":"CollisionShape2D20"},{"name":"PickupSound8"},{"children":[118,119,120],"name":"Coin9"},{"name":"AnimatedSprite2D17"},{"name":"CollisionShape2D21"},{"name":"PickupSound9"},{"children":[122,123,124],"name":"Coin10"},{"name":"AnimatedSprite2D18"},{"name":"CollisionShape2D22"},{"name":"PickupSound10"},{"children":[126,127,128],"name":"Coin11"},{"name":"AnimatedSprite2D19"},{"name":"CollisionShape2D23"},{"name":"PickupSound11"},{"children":[130,131,132],"name":"Coin12"},{"name":"AnimatedSprite2D20"},{"name":"CollisionShape2D24"},{"name":"PickupSound12"},{"children":[134,135,136],"name":"Coin13"},{"name":"AnimatedSprite2D21"},{"name":"CollisionShape2D25"},{"name":"PickupSound13"},{"children":[138,139,140],"name":"Coin14"},{"name":"AnimatedSprite2D22"},{"name":"CollisionShape2D26"},{"name":"PickupSound14"},{"children":[142,143,144],"name":"Coin15"},{"name":"AnimatedSprite2D23"},{"name":"CollisionShape2D27"},{"name":"PickupSound15"},{"children":[146,147,148],"name":"Coin16"},{"name":"AnimatedSprite2D24"},{"name":"CollisionShape2D28"},{"name":"PickupSound16"},{"children":[150,151,152],"name":"Coin17"},{"name":"AnimatedSprite2D25"},{"name":"CollisionShape2D29"},{"name":"PickupSound17"},{"children":[154,155,156],"name":"Coin18"},{"name":"AnimatedSprite2D26"},{"name":"CollisionShape2D30"},{"name":"PickupSound18"},{"children":[158,159,160],"name":"Coin19"},{"name":"AnimatedSprite2D27"},{"name":"CollisionShape2D31"},{"name":"PickupSound19"},{"children":[162,163,164],"name":"Coin20"},{"name":"AnimatedSprite2D28"},{"name":"CollisionShape2D32"},{"name":"PickupSound20"},{"children":[166,167,168],"name":"Coin21"},{"name":"AnimatedSprite2D29"},{"name":"CollisionShape2D33"},{"name":"PickupSound21"},{"children":[170,171,172],"name":"Coin22"},{"name":"AnimatedSprite2D30"},{"name":"CollisionShape2D34"},{"name":"PickupSound22"},{"children":[174,175,176],"name":"Coin23"},{"name":"AnimatedSprite2D31"},{"name":"CollisionShape2D35"},{"name":"PickupSound23"},{"children":[178,179,180],"name":"Coin24"},{"name":"AnimatedSprite2D32"},{"name":"CollisionShape2D36"},{"name":"PickupSound24"},{"children":[182,183,184],"name":"Coin25"},{"name":"AnimatedSprite2D33"},{"name":"CollisionShape2D37"},{"name":"PickupSound25"},{"children":[186,187,188],"name":"Coin26"},{"name":"AnimatedSprite2D34"},{"name":"CollisionShape2D38"},{"name":"PickupSound26"},{"children":[190,191,192],"name":"Coin27"},{"name":"AnimatedSprite2D35"},{"name":"CollisionShape2D39"},{"name":"PickupSound27"},{"children":[194,195,196],"name":"Coin28"},{"name":"AnimatedSprite2D36"},{"name":"CollisionShape2D40"},{"name":"PickupSound28"},{"children":[198,199,200],"name":"Coin29"},{"name":"AnimatedSprite2D37"},{"name":"CollisionShape2D41"},{"name":"PickupSound29"},{"children":[202,203,204],"name":"Coin30"},{"name":"AnimatedSprite2D38"},{"name":"CollisionShape2D42"},{"name":"PickupSound30"},{"children":[206,207,208],"name":"Coin31"},{"name":"AnimatedSprite2D39"},{"name":"CollisionShape2D43"},{"name":"PickupSound31"},{"children":[210,211,212],"name":"Coin32"},{"name":"AnimatedSprite2D40"},{"name":"CollisionShape2D44"},{"name":"PickupSound32"},{"children":[214,215,216],"name":"Coin33"},{"name":"AnimatedSprite2D41"},{"name":"CollisionShape2D45"},{"name":"PickupSound33"},{"children":[218,219,220],"name":"Coin34"},{"name":"AnimatedSprite2D42"},{"name":"CollisionShape2D46"},{"name":"PickupSound34"},{"children":[222,223,224],"name":"Coin35"},{"name":"AnimatedSprite2D43"},{"name":"CollisionShape2D47"},{"name":"PickupSound35"},{"children":[226,227,228],"name":"Coin36"},{"name":"AnimatedSprite2D44"},{"name":"CollisionShape2D48"},{"name":"PickupSound36"},{"children":[230,231,232],"name":"Coin37"},{"name":"AnimatedSprite2D45"},{"name":"CollisionShape2D49"},{"name":"PickupSound37"},{"children":[234,235,236],"name":"Coin38"},{"name":"AnimatedSprite2D46"},{"name":"CollisionShape2D50"},{"name":"PickupSound38"},{"children":[238,239,240],"name":"Coin40"},{"name":"AnimatedSprite2D47"},{"name":"CollisionShape2D51"},{"name":"PickupSound39"},{"children":[242,243,244],"name":"Coin41"},{"name":"AnimatedSprite2D48"},{"name":"CollisionShape2D52"},{"name":"PickupSound40"},{"children":[246,247,248],"name":"Coin42"},{"name":"AnimatedSprite2D49"},{"name":"CollisionShape2D53"},{"name":"PickupSound41"},{"children":[250,251,252],"name":"Coin43"},{"name":"AnimatedSprite2D50"},{"name":"CollisionShape2D54"},{"name":"PickupSound42"},{"children":[254,255,256],"name":"Coin44"},{"name":"AnimatedSprite2D51"},{"name":"CollisionShape2D55"},{"name":"PickupSound43"},{"children":[258,259,260],"name":"Coin45"},{"name":"AnimatedSprite2D52"},{"name":"CollisionShape2D56"},{"name":"PickupSound44"},{"children":[262,263,264],"name":"Coin46"},{"name":"AnimatedSprite2D53"},{"name":"CollisionShape2D57"},{"name":"PickupSound45"},{"children":[266,267,268],"name":"Coin47"},{"name":"AnimatedSprite2D54"},{"name":"CollisionShape2D58"},{"name":"PickupSound46"},{"children":[270,271,272],"name":"Coin48"},{"name":"AnimatedSprite2D55"},{"name":"CollisionShape2D59"},{"name":"PickupSound47"},{"children":[274,275,276],"name":"Coin49"},{"name":"AnimatedSprite2D56"},{"name":"CollisionShape2D60"},{"name":"PickupSound48"},{"children":[278,279,280],"name":"Coin50"},{"name":"AnimatedSprite2D57"},{"name":"CollisionShape2D61"},{"name":"PickupSound49"},{"children":[282,283,284],"name":"Coin51"},{"name":"AnimatedSprite2D58"},{"name":"CollisionShape2D62"},{"name":"PickupSound50"},{"children":[286,287,288],"name":"Coin52"},{"name":"AnimatedSprite2D59"},{"name":"CollisionShape2D63"},{"name":"PickupSound51"},{"children":[290,291,292],"name":"Coin53"},{"name":"AnimatedSprite2D60"},{"name":"CollisionShape2D64"},{"name":"PickupSound52"},{"children":[294,295,296],"name":"Coin54"},{"name":"AnimatedSprite2D61"},{"name":"CollisionShape2D65"},{"name":"PickupSound53"},{"children":[298,299,300],"name":"Coin55"},{"name":"AnimatedSprite2D62"},{"name":"CollisionShape2D66"},{"name":"PickupSound54"},{"children":[302,303,304],"name":"Coin56"},{"name":"AnimatedSprite2D63"},{"name":"CollisionShape2D67"},{"name":"PickupSound55"},{"children":[306,307,308],"name":"Coin57"},{"name":"AnimatedSprite2D64"},{"name":"CollisionShape2D68"},{"name":"PickupSound56"},{"children":[310,311,312],"name":"Coin59"},{"name":"AnimatedSprite2D65"},{"name":"CollisionShape2D69"},{"name":"PickupSound57"},{"children":[314,315,316],"name":"Coin60"},{"name":"AnimatedSprite2D66"},{"name":"CollisionShape2D70"},{"name":"PickupSound58"},{"children":[318,319,320],"name":"Coin61"},{"name":"AnimatedSprite2D67"},{"name":"CollisionShape2D71"},{"name":"PickupSound59"},{"children":[322,323,324],"name":"Coin62"},{"name":"AnimatedSprite2D68"},{"name":"CollisionShape2D72"},{"name":"PickupSound60"},{"children":[326,327,328],"name":"Coin63"},{"name":"AnimatedSprite2D69"},{"name":"CollisionShape2D73"},{"name":"PickupSound61"},{"children":[330,331,332],"name":"Coin64"},{"name":"AnimatedSprite2D70"},{"name":"CollisionShape2D74"},{"name":"PickupSound62"},{"children":[334,335,336],"name":"Coin65"},{"name":"AnimatedSprite2D71"},{"name":"CollisionShape2D75"},{"name":"PickupSound63"},{"children":[338,339,340],"name":"Coin66"},{"name":"AnimatedSprite2D72"},{"name":"CollisionShape2D76"},{"name":"PickupSound64"},{"children":[342,343,344],"name":"Coin67"},{"name":"AnimatedSprite2D73"},{"name":"CollisionShape2D77"},{"name":"PickupSound65"},{"children":[346,347,348],"name":"Coin68"},{"name":"AnimatedSprite2D74"},{"name":"CollisionShape2D78"},{"name":"PickupSound66"},{"children":[350,351,352],"name":"Coin69"},{"name":"AnimatedSprite2D75"},{"name":"CollisionShape2D79"},{"name":"PickupSound67"},{"children":[354,355,356],"name":"Coin70"},{"name":"AnimatedSprite2D76"},{"name":"CollisionShape2D80"},{"name":"PickupSound68"},{"children":[358,359,360],"name":"Coin71"},{"name":"AnimatedSprite2D77"},{"name":"CollisionShape2D81"},{"name":"PickupSound69"},{"children":[362,363,364],"name":"Coin72"},{"name":"AnimatedSprite2D78"},{"name":"CollisionShape2D82"},{"name":"PickupSound70"},{"children":[366,367,368],"name":"Coin73"},{"name":"AnimatedSprite2D79"},{"name":"CollisionShape2D83"},{"name":"PickupSound71"},{"children":[370,371,372],"name":"Coin74"},{"name":"AnimatedSprite2D80"},{"name":"CollisionShape2D84"},{"name":"PickupSound72"},{"children":[374,375,376],"name":"Coin75"},{"name":"AnimatedSprite2D81"},{"name":"CollisionShape2D85"},{"name":"PickupSound73"},{"children":[378,379,380],"name":"Coin76"},{"name":"AnimatedSprite2D82"},{"name":"CollisionShape2D86"},{"name":"PickupSound74"},{"children":[382,383,384],"name":"Coin77"},{"name":"AnimatedSprite2D83"},{"name":"CollisionShape2D87"},{"name":"PickupSound75"},{"children":[386,387,388],"name":"Coin78"},{"name":"AnimatedSprite2D84"},{"name":"CollisionShape2D88"},{"name":"PickupSound76"},{"children":[390,393,400,403,406,413,420,423,426,429,436,439,442],"name":"Platforms"},{"children":[391,392],"name":"Platform"},{"name":"Sprite2D"},{"name":"CollisionShape2D89"},{"children":[394,395,396],"name":"Platform2"},{"name":"Sprite2D2"},{"name":"CollisionShape2D90"},{"children":[397,398,399],"name":"Coin142"},{"name":"AnimatedSprite2D85"},{"name":"CollisionShape2D91"},{"name":"PickupSound77"},{"children":[401,402],"name":"Platform3"},{"name":"Sprite2D3"},{"name":"CollisionShape2D92"},{"children":[404,405],"name":"Platform4"},{"name":"Sprite2D4"},{"name":"CollisionShape2D93"},{"children":[407,408,409],"name":"Platform5"},{"name":"Sprite2D5"},{"name":"CollisionShape2D94"},{"children":[410,411,412],"name":"Coin232"},{"name":"AnimatedSprite2D86"},{"name":"CollisionShape2D95"},{"name":"PickupSound78"},{"children":[414,415,416],"name":"Platform6"},{"name":"Sprite2D6"},{"name":"CollisionShape2D96"},{"children":[417,418,419],"name":"Coin242"},{"name":"AnimatedSprite2D87"},{"name":"CollisionShape2D97"},{"name":"PickupSound79"},{"children":[421,422],"name":"Platform7"},{"name":"Sprite2D7"},{"name":"CollisionShape2D98"},{"children":[424,425],"name":"Platform8"},{"name":"Sprite2D8"},{"name":"CollisionShape2D99"},{"children":[427,428],"name":"Platform9"},{"name":"Sprite2D9"},{"name":"CollisionShape2D100"},{"children":[430,431,432],"name":"Platform10"},{"name":"Sprite2D10"},{"name":"CollisionShape2D101"},{"children":[433,434,435],"name":"Coin502"},{"name":"AnimatedSprite2D88"},{"name":"CollisionShape2D102"},{"name":"PickupSound80"},{"children":[437,438],"name":"Platform11"},{"name":"Sprite2D11"},{"name":"CollisionShape2D103"},{"children":[440,441],"name":"Platform12"},{"name":"Sprite2D12"},{"name":"CollisionShape2D104"},{"children":[443,444],"name":"Platform13"},{"name":"Sprite2D13"},{"name":"CollisionShape2D105"},{"children":[446,447,451,452],"name":"Slime3"},{"name":"AnimatedSprite2D89"},{"children":[448,449,450],"name":"Killzone9"},{"name":"Timer9"},{"name":"AudioStreamPlayer2D9"},{"name":"CollisionShape2D106"},{"name":"RayCastRight8"},{"name":"RayCastLeft8"},{"children":[454,455,456,457],"name":"Labels"},{"name":"Label"},{"name":"Label2"},{"name":"Label3"},{"name":"Label4"},{"children":[459,460,464,465],"name":"Slime22"},{"name":"AnimatedSprite2D90"},{"children":[461,462,463],"name":"Killzone10"},{"name":"Timer10"},{"name":"AudioStreamPlayer2D10"},{"name":"CollisionShape2D107"},{"name":"RayCastRight9"},{"name":"RayCastLeft9"},{"children":[467,468,472,473],"name":"Slime32"},{"name":"AnimatedSprite2D91"},{"children":[469,470,471],"name":"Killzone11"},{"name":"Timer11"},{"name":"AudioStreamPlayer2D11"},{"name":"CollisionShape2D108"},{"name":"RayCastRight10"},{"name":"RayCastLeft10"},{"children":[475,476,480,481],"name":"Slime52"},{"name":"AnimatedSprite2D92"},{"children":[477,478,479],"name":"Killzone12"},{"name":"Timer12"},{"name":"AudioStreamPlayer2D12"},{"name":"CollisionShape2D109"},{"name":"RayCastRight11"},{"name":"RayCastLeft11"},{"name":"Timer13"}],"scene":0,"scenes":[{"nodes":[0]}]}